{
  "source": "C:\\Users\\Peter\\Desktop\\stuff\\MIUN\\quantitative_research\\video_compression\\videos\\BVI-HD\\BVI-HD_CDVL_videos\\ORIG\\DiverFishAndRock_1920x1080_30fps.mp4",
  "output": "C:\\Users\\Peter\\Desktop\\stuff\\MIUN\\quantitative_research\\video_compression\\compressed_videos\\BVI-HD\\av1\\2\\DiverFishAndRock_1920x1080_30fps_av1.mkv",
  "codec": "av1",
  "ok": "Input #0, mov,mp4,m4a,3gp,3g2,mj2, from 'C:\\Users\\Peter\\Desktop\\stuff\\MIUN\\quantitative_research\\video_compression\\videos\\BVI-HD\\BVI-HD_CDVL_videos\\ORIG\\DiverFishAndRock_1920x1080_30fps.mp4':\n  Metadata:\n    major_brand     : isom\n    minor_version   : 512\n    compatible_brands: isomiso2avc1mp41\n    encoder         : Lavf54.28.101\n  Duration: 00:00:05.00, start: 0.000000, bitrate: 228854 kb/s\n  Stream #0:0[0x1](und): Video: h264 (High 4:4:4 Predictive) (avc1 / 0x31637661), yuv420p(progressive), 1920x1080, 228851 kb/s, 30 fps, 30 tbr, 30 tbn (default)\n    Metadata:\n      handler_name    : VideoHandler\n      vendor_id       : [0][0][0][0]\n[out#0/matroska @ 0000016d65000b80] Codec AVOption b:a (set bitrate (in bits/s)) has not been used for any stream. The most likely reason is either wrong type (e.g. a video option with no video streams) or that it is a private option of some decoder which was not actually used for any stream.\nStream mapping:\n  Stream #0:0 -> #0:0 (h264 (native) -> av1 (libsvtav1))\nPress [q] to stop, [?] for help\nSvt[info]: -------------------------------------------\nSvt[info]: SVT [version]:\tSVT-AV1 Encoder Lib v3.1.0-19-g6ecfe8ec\nSvt[info]: SVT [build]  :\tGCC 15.2.0\t 64 bit\nSvt[info]: LIB Build date: Aug 17 2025 11:37:13\nSvt[info]: -------------------------------------------\nSvt[info]: Level of Parallelism: 5\nSvt[info]: Number of PPCS 93\nSvt[info]: [asm level on system : up to avx2]\nSvt[info]: [asm level selected : up to avx2]\nSvt[info]: -------------------------------------------\nSvt[info]: SVT [config]: main profile\ttier (auto)\tlevel (auto)\nSvt[info]: SVT [config]: width / height / fps numerator / fps denominator \t\t: 1920 / 1080 / 30 / 1\nSvt[info]: SVT [config]: bit-depth / color format \t\t\t\t\t: 8 / YUV420\nSvt[info]: SVT [config]: preset / tune / pred struct \t\t\t\t\t: 4 / PSNR / random access\nSvt[info]: SVT [config]: gop size / mini-gop size / key-frame type \t\t\t: 161 / 16 / key frame\nSvt[info]: SVT [config]: BRC mode / target bitrate (kbps)\t\t\t\t: VBR / 2000 \nSvt[info]: SVT [config]: AQ mode / Variance Boost \t\t\t\t\t: 2 / 0\nSvt[info]: SVT [config]: sharpness / luminance-based QP bias \t\t\t\t: 0 / 0\nSvt[info]: SVT [config]: QP scale compress strength \t\t\t\t\t: 0\nSvt[info]: -------------------------------------------\nOutput #0, matroska, to 'C:\\Users\\Peter\\Desktop\\stuff\\MIUN\\quantitative_research\\video_compression\\compressed_videos\\BVI-HD\\av1\\2\\DiverFishAndRock_1920x1080_30fps_av1.mkv':\n  Metadata:\n    major_brand     : isom\n    minor_version   : 512\n    compatible_brands: isomiso2avc1mp41\n    encoder         : Lavf62.3.100\n  Stream #0:0(und): Video: av1 (AV01 / 0x31305641), yuv420p(tv, progressive), 1920x1080, q=2-31, 2000 kb/s, 30 fps, 1k tbn (default)\n    Metadata:\n      encoder         : Lavc62.11.100 libsvtav1\n      handler_name    : VideoHandler\n      vendor_id       : [0][0][0][0]\n    Side data:\n      cpb: bitrate max/min/avg: 0/0/2000000 buffer size: 2000000 vbv_delay: N/A\nframe=    0 fps=0.0 q=0.0 size=       0KiB time=N/A bitrate=N/A speed=N/A elapsed=0:00:01.03    \nframe=    0 fps=0.0 q=0.0 size=       0KiB time=N/A bitrate=N/A speed=N/A elapsed=0:00:01.57    \nframe=    0 fps=0.0 q=0.0 size=       0KiB time=N/A bitrate=N/A speed=N/A elapsed=0:00:02.12    \nframe=    0 fps=0.0 q=0.0 size=       0KiB time=N/A bitrate=N/A speed=N/A elapsed=0:00:02.64    \nframe=    1 fps=0.3 q=18.0 size=       1KiB time=00:00:00.00 bitrate=N/A speed=   0x elapsed=0:00:03.15    \nframe=    1 fps=0.3 q=18.0 size=       1KiB time=00:00:00.00 bitrate=N/A speed=   0x elapsed=0:00:03.68    \nframe=    1 fps=0.2 q=18.0 size=       1KiB time=00:00:00.00 bitrate=N/A speed=   0x elapsed=0:00:04.20    \nframe=    5 fps=1.1 q=38.0 size=       1KiB time=00:00:00.13 bitrate=  42.8kbits/s speed=0.0282x elapsed=0:00:04.72    \nframe=    8 fps=1.5 q=42.0 size=       1KiB time=00:00:00.23 bitrate=  24.4kbits/s speed=0.0444x elapsed=0:00:05.25    \nframe=   10 fps=1.7 q=40.0 size=       1KiB time=00:00:00.30 bitrate=  19.0kbits/s speed=0.052x elapsed=0:00:05.77    \nframe=   13 fps=2.1 q=35.0 size=       1KiB time=00:00:00.40 bitrate=  14.3kbits/s speed=0.0633x elapsed=0:00:06.32    \nframe=   18 fps=2.6 q=37.0 size=       1KiB time=00:00:00.56 bitrate=  10.1kbits/s speed=0.0826x elapsed=0:00:06.85    \nframe=   21 fps=2.8 q=36.0 size=       1KiB time=00:00:00.66 bitrate=   8.6kbits/s speed=0.0904x elapsed=0:00:07.37    \nframe=   23 fps=2.9 q=36.0 size=       1KiB time=00:00:00.73 bitrate=   7.8kbits/s speed=0.0927x elapsed=0:00:07.90    \nframe=   26 fps=3.1 q=36.0 size=       1KiB time=00:00:00.83 bitrate=   6.8kbits/s speed=0.0989x elapsed=0:00:08.42    \nframe=   28 fps=3.1 q=37.0 size=       1KiB time=00:00:00.90 bitrate=   6.3kbits/s speed=0.101x elapsed=0:00:08.94    \nframe=   33 fps=3.5 q=23.0 size=       1KiB time=00:00:01.06 bitrate=   5.3kbits/s speed=0.112x elapsed=0:00:09.48    \nframe=   36 fps=3.6 q=37.0 size=       1KiB time=00:00:01.16 bitrate=   4.9kbits/s speed=0.117x elapsed=0:00:10.00    \nframe=   38 fps=3.6 q=37.0 size=       1KiB time=00:00:01.23 bitrate=   4.6kbits/s speed=0.117x elapsed=0:00:10.52    \nframe=   40 fps=3.6 q=37.0 size=       1KiB time=00:00:01.30 bitrate=   4.4kbits/s speed=0.118x elapsed=0:00:11.04    \nframe=   43 fps=3.7 q=37.0 size=       1KiB time=00:00:01.40 bitrate=   4.1kbits/s speed=0.121x elapsed=0:00:11.56    \nframe=   48 fps=4.0 q=39.0 size=       1KiB time=00:00:01.56 bitrate=   3.6kbits/s speed=0.13x elapsed=0:00:12.09    \nframe=   51 fps=4.0 q=38.0 size=       1KiB time=00:00:01.66 bitrate=   3.4kbits/s speed=0.132x elapsed=0:00:12.60    \nframe=   57 fps=4.3 q=33.0 size=       1KiB time=00:00:01.86 bitrate=   3.1kbits/s speed=0.142x elapsed=0:00:13.12    \nframe=   57 fps=4.2 q=33.0 size=       1KiB time=00:00:01.86 bitrate=   3.1kbits/s speed=0.137x elapsed=0:00:13.64    \nframe=   61 fps=4.3 q=35.0 size=       1KiB time=00:00:02.00 bitrate=   2.9kbits/s speed=0.141x elapsed=0:00:14.17    \nframe=   65 fps=4.4 q=19.0 size=       1KiB time=00:00:02.13 bitrate=   2.7kbits/s speed=0.145x elapsed=0:00:14.70    \nframe=   69 fps=4.5 q=38.0 size=       1KiB time=00:00:02.26 bitrate=   2.5kbits/s speed=0.149x elapsed=0:00:15.22    \nframe=   73 fps=4.6 q=34.0 size=       1KiB time=00:00:02.40 bitrate=   2.4kbits/s speed=0.152x elapsed=0:00:15.74    \nframe=   75 fps=4.6 q=39.0 size=       1KiB time=00:00:02.46 bitrate=   2.3kbits/s speed=0.152x elapsed=0:00:16.26    \nframe=   77 fps=4.6 q=35.0 size=       1KiB time=00:00:02.53 bitrate=   2.3kbits/s speed=0.151x elapsed=0:00:16.78    \nframe=   83 fps=4.8 q=40.0 size=       1KiB time=00:00:02.73 bitrate=   2.1kbits/s speed=0.158x elapsed=0:00:17.30    \nframe=   87 fps=4.9 q=36.0 size=       1KiB time=00:00:02.86 bitrate=   2.0kbits/s speed=0.161x elapsed=0:00:17.83    \nframe=   89 fps=4.9 q=34.0 size=       1KiB time=00:00:02.93 bitrate=   1.9kbits/s speed=0.16x elapsed=0:00:18.34    \nframe=   93 fps=4.9 q=35.0 size=       1KiB time=00:00:03.06 bitrate=   1.9kbits/s speed=0.163x elapsed=0:00:18.86    \nframe=   97 fps=5.0 q=24.0 size=       1KiB time=00:00:03.20 bitrate=   1.8kbits/s speed=0.165x elapsed=0:00:19.41    \nframe=  101 fps=5.1 q=38.0 size=       1KiB time=00:00:03.33 bitrate=   1.7kbits/s speed=0.167x elapsed=0:00:19.93    \nframe=  105 fps=5.1 q=34.0 size=       1KiB time=00:00:03.46 bitrate=   1.6kbits/s speed=0.17x elapsed=0:00:20.43    \nframe=  107 fps=5.1 q=38.0 size=       1KiB time=00:00:03.53 bitrate=   1.6kbits/s speed=0.169x elapsed=0:00:20.95    \nframe=  109 fps=5.1 q=35.0 size=       1KiB time=00:00:03.60 bitrate=   1.6kbits/s speed=0.167x elapsed=0:00:21.50    \nframe=  113 fps=5.1 q=25.0 size=       1KiB time=00:00:03.73 bitrate=   1.5kbits/s speed=0.17x elapsed=0:00:22.01    \nframe=  117 fps=5.2 q=38.0 size=       1KiB time=00:00:03.86 bitrate=   1.5kbits/s speed=0.172x elapsed=0:00:22.54    \nframe=  121 fps=5.2 q=34.0 size=       1KiB time=00:00:04.00 bitrate=   1.4kbits/s speed=0.174x elapsed=0:00:23.04    \nframe=  125 fps=5.3 q=37.0 size=       1KiB time=00:00:04.13 bitrate=   1.4kbits/s speed=0.175x elapsed=0:00:23.58    \nframe=  129 fps=5.4 q=24.0 size=       1KiB time=00:00:04.26 bitrate=   1.3kbits/s speed=0.177x elapsed=0:00:24.10    \nframe=  135 fps=5.5 q=41.0 size=       1KiB time=00:00:04.46 bitrate=   1.3kbits/s speed=0.181x elapsed=0:00:24.62    \nframe=  137 fps=5.4 q=37.0 size=       1KiB time=00:00:04.53 bitrate=   1.3kbits/s speed=0.18x elapsed=0:00:25.16    \nframe=  143 fps=5.6 q=41.0 size=       1KiB time=00:00:04.73 bitrate=   1.2kbits/s speed=0.184x elapsed=0:00:25.67    \n[out#0/matroska @ 0000016d65000b80] video:1238KiB audio:0KiB subtitle:0KiB other streams:0KiB global headers:0KiB muxing overhead: 0.114501%\nframe=  150 fps=5.8 q=41.0 Lsize=    1240KiB time=00:00:04.96 bitrate=2044.9kbits/s speed=0.193x elapsed=0:00:25.74    \n",
  "seconds": 26.187448263168335,
  "probe_out": {}
}